<?xml version="1.0" standalone="no"?><!DOCTYPE svg PUBLIC "-//W3C//DTD SVG 1.1//EN" "http://www.w3.org/Graphics/SVG/1.1/DTD/svg11.dtd"><svg t="1720270596485" class="icon" viewBox="0 0 1024 1024" version="1.1" xmlns="http://www.w3.org/2000/svg" p-id="4259" xmlns:xlink="http://www.w3.org/1999/xlink" width="200" height="200"><path d="M863.68 430.848l-33.088-33.152V248.64a52.096 52.096 0 0 0-104.192 0v44.608l-200.512-200.96a19.5456 19.5456 0 0 0-27.712 0l-337.792 338.56L36.736 554.816c-11.776 11.776-3.392 31.936 13.248 31.936h110.4v280.832c0 30.912 25.088 56 56 56h190.144v-255.36c0-58.24 47.232-105.472 105.536-105.472 29.12 0 55.488 11.84 74.56 30.912s30.912 45.44 30.912 74.56v255.36h190.144c30.912 0 56-25.088 56-56V586.752h110.4c16.704 0 25.024-20.16 13.248-31.936l-123.648-123.968z" fill="#666666" p-id="4260"></path></svg>