<?xml version="1.0" standalone="no"?><!DOCTYPE svg PUBLIC "-//W3C//DTD SVG 1.1//EN" "http://www.w3.org/Graphics/SVG/1.1/DTD/svg11.dtd"><svg t="1720270629066" class="icon" viewBox="0 0 1024 1024" version="1.1" xmlns="http://www.w3.org/2000/svg" p-id="5297" xmlns:xlink="http://www.w3.org/1999/xlink" width="200" height="200"><path d="M384 384l320 224-320 224V384z m531.2-153.6c-19.2-32-51.2-64-83.2-102.4-32-32-70.4-64-102.4-89.6C678.4 6.4 652.8 0 640 0H140.8C102.4 0 64 38.4 64 83.2v864c0 38.4 38.4 76.8 76.8 76.8h736c44.8 0 83.2-38.4 83.2-83.2V320c0-12.8-6.4-38.4-44.8-89.6z m-128-57.6c32 32 57.6 57.6 70.4 83.2H704V102.4c25.6 19.2 51.2 38.4 83.2 70.4zM896 947.2c0 6.4-6.4 19.2-19.2 19.2h-736c-6.4-6.4-12.8-12.8-12.8-19.2v-864c0-12.8 6.4-19.2 12.8-19.2H640v224c0 19.2 12.8 32 32 32h224v627.2z m0 0" p-id="5298"></path></svg>