<?xml version="1.0" standalone="no"?><!DOCTYPE svg PUBLIC "-//W3C//DTD SVG 1.1//EN" "http://www.w3.org/Graphics/SVG/1.1/DTD/svg11.dtd"><svg t="1720854700948" class="icon" viewBox="0 0 1024 1024" version="1.1" xmlns="http://www.w3.org/2000/svg" p-id="4275" xmlns:xlink="http://www.w3.org/1999/xlink" width="200" height="200"><path d="M880.182 987.568H143.818C98.705 987.568 62 952.882 62 910.245V801.52c0-122.986 110.113-223.042 245.455-223.042h409.09C851.887 578.478 962 678.533 962 801.52v108.726c0 42.636-36.704 77.322-81.818 77.322z m-736.364-82.197l736.363 0.379V801.52c0-77.873-73.408-141.224-163.637-141.224h-409.09c-90.228 0-163.636 63.351-163.636 141.224v103.851zM511.67 547.796c-140.984 0-255.682-114.697-255.682-255.682 0-140.984 114.697-255.682 255.682-255.682 140.985 0 255.682 114.697 255.682 255.682 0.001 140.985-114.697 255.682-255.682 255.682z m0-429.546c-95.871 0-173.864 77.993-173.864 173.864S415.8 465.978 511.67 465.978s173.864-77.993 173.864-173.864S607.541 118.25 511.67 118.25z" fill="#333333" p-id="4276"></path></svg>